# AST/ASF file generated using VICON BodyLanguage
# -----------------------------------------------
:version 1.10
:name VICON
:units
  mass 1.0
  length 0.45
  angle deg
:documentation
   .ast/.asf automatically generated from VICON data using
   VICON BodyBuilder and BodyLanguage model FoxedUp or BRILLIANT.MOD
:root
   order TX TY TZ RX RY RZ
   axis XYZ
   position 0 0 0  
   orientation 0 0 0 
:bonedata
  begin
     id 1 
     name lhipjoint
     direction 0.653368 -0.678499 0.335782 
     length 2.51848 
     axis 0 0 0  XYZ
  end
  begin
     id 2 
     name lfemur
     direction 0.34202 -0.939693 0  
     length 6.57749  
     axis 0 0 20  XYZ
    dof rx ry rz
    limits (-160.0 20.0)
           (-70.0 70.0)
           (-60.0 70.0)
  end
  begin
     id 3 
     name ltibia
     direction 0.34202 -0.939693 0   
     length 7.94618   
     axis 0 0 20   XYZ
    dof rx
    limits (-10.0 170.0)
  end
  begin
     id 4 
     name lfoot
     direction 0.0811271 -0.222895 0.971461   
     length 2.31339   
     axis -90 7.62852e-016 20   XYZ
    dof rx rz
    limits (-45.0 90.0)
           (-70.0 20.0)
  end
  begin
     id 5 
     name ltoes
     direction 1.53568e-011 -4.21885e-011 1   
     length 1.15935   
     axis -90 7.62852e-016 20   XYZ
    dof rx
    limits (-90.0 20.0)
  end
  begin
     id 6 
     name rhipjoint
     direction -0.640058 -0.688614 0.340788   
     length 2.48149  
     axis 0 0 0  XYZ 
  end
  begin
     id 7 
     name rfemur
     direction -0.34202 -0.939693 0   
     length 6.57875   
     axis 0 0 -20   XYZ
    dof rx ry rz
    limits (-160.0 20.0)
           (-70.0 70.0)
           (-70.0 60.0)
  end
  begin
     id 8 
     name rtibia
     direction -0.34202 -0.939693 0   
     length 7.977   
     axis 0 0 -20   XYZ
    dof rx
    limits (-10.0 170.0)
 end
 begin
     id 9 
     name rfoot
     direction -0.0979793 -0.269196 0.958089   
     length 2.19857  
     axis -90 -7.62852e-016 -20   XYZ
    dof rx rz
    limits (-45.0 90.0)
           (-20.0 70.0)
  end
  begin
     id 10 
     name rtoes
     direction -1.53556e-011 -4.21868e-011 1   
     length 1.09838   
     axis -90 -7.62852e-016 -20   XYZ
    dof rx
    limits (-90.0 20.0)
  end
  begin
     id 11 
     name lowerback
     direction 0.0149039 0.998517 -0.0523597   
     length 2.10809   
     axis 0 0 0   XYZ
    dof rx ry rz
    limits (-20.0 45.0)
           (-30.0 30.0)
           (-30.0 30.0)
  end
  begin
     id 12 
     name upperback
     direction -0.00882659 0.999418 -0.0329624   
     length 2.1102   
     axis 0 0 0   XYZ
    dof rx ry rz
    limits (-20.0 45.0)
           (-30.0 30.0)
           (-30.0 30.0)
  end
  begin
     id 13 
     name thorax
     direction -0.0165585 0.999826 -0.0085833   
     length 2.11039   
     axis 0 0 0   XYZ
    dof rx ry rz
    limits (-20.0 45.0)
           (-30.0 30.0)
           (-30.0 30.0)
  end
  begin
     id 14 
     name lowerneck
     direction -0.0130877 0.999911 0.00260353   
     length 1.73253   
     axis 0 0 0   XYZ
    dof rx ry rz
    limits (-20.0 45.0)
           (-30.0 30.0)
           (-30.0 30.0)
  end
  begin
     id 15 
     name upperneck
     direction -0.0348454 0.928205 -0.370435   
     length 1.66692   
     axis 0 0 0   XYZ
    dof rx ry rz
    limits (-20.0 45.0)
           (-30.0 30.0)
           (-30.0 30.0)
  end
  begin
     id 16
     name head
     direction -0.00807754 0.992494 -0.122026  
     length 1.72765  
     axis 0 0 0   XYZ
    dof rx ry rz
    limits (-20.0 45.0)
           (-30.0 30.0)
           (-30.0 30.0)
  end
  begin
     id 17 
     name lclavicle
     direction 0.987582 0.144023 0.0627671  
     length 3.49235  
     axis 0 0 0   XYZ
    dof ry rz
    limits (-20.0 10.0)
           (0.0 20.0)
  end
  begin
     id 18 
     name lhumerus
     direction 1 -4.48958e-011 -1.45183e-018   
     length 5.41917   
     axis 180 -30 -90   XYZ
    dof rx ry rz
    limits (-60.0 90.0)
           (-90.0 90.0)
           (-90.0 90.0)
  end
  begin
     id 19
     name lradius
     direction 1 -4.48999e-011 5.75106e-027   
     length 2.44373   
     axis 180 -30 -90   XYZ
    dof rx
    limits (-10.0 170.0)
  end
  begin
     id 20
     name lwrist
     direction 1 -4.48987e-011 1.53461e-026   
     length 1.22186   
     axis -1.09697e-014 90 90   XYZ
    dof ry
    limits (-180.0 0.0)
 end
  begin
     id 21 
     name lhand
     direction 1 -4.48881e-011 3.06923e-026   
     length 0.727502   
     axis -1.95843e-014 90 90   XYZ
    dof rx rz
    limits (-90.0 90.0)
           (-45.0 45.0)
  end
  begin
     id 22 
     name lfingers
     direction 1 -4.48907e-011 6.13845e-026   
     length 0.586531   
     axis -3.91686e-014 90 90   XYZ
    dof rx
    limits (0.0 90.0)
  end
  begin
     id 23
     name lthumb
     direction 0.707107 -6.3487e-011 0.707107   
     length 0.842145   
     axis -90 45 2.85299e-015   XYZ
    dof rx rz
    limits (-45.0 45.0)
           (-45.0 45.0)
  end
  begin
     id 24 
     name rclavicle
     direction -0.980998 0.169556 0.0943023   
     length 3.29272  
     axis 0 0 0   XYZ 
    dof ry rz
    limits (-10.0 20.0)
           (-20.0 0.0)
  end
  begin
     id 25 
     name rhumerus
     direction -1 -1.83355e-005 2.45537e-005  
     length 5.58976   
     axis 180 30 90   XYZ
    dof rx ry rz
    limits (-90.0 60.0)
           (-90.0 90.0)
           (-90.0 90.0)
  end
  begin
     id 26 
     name rradius
     direction -1 -4.48967e-011 5.97228e-027   
     length 2.4806   
     axis 180 30 90   XYZ
    dof rx
    limits (-10.0 170.0)
  end
  begin
     id 27 
     name rwrist
     direction -1 -4.48963e-011 1.53461e-026   
     length 1.2403   
     axis -1.09697e-014 -90 -90   XYZ
    dof ry
    limits (-180.0 0.0)
  end
  begin
     id 28
     name rhand
     direction -1 -4.48881e-011 3.06923e-026   
     length 0.816009   
     axis -1.95843e-014 -90 -90   XYZ
    dof rx rz
    limits (-90.0 90.0)
           (-45.0 45.0)
  end
  begin
     id 29
     name rfingers
     direction -1 -4.49018e-011 6.13845e-026   
     length 0.657887   
     axis -3.91686e-014 -90 -90   XYZ
    dof rx
    limits (0.0 90.0)
  end
  begin
     id 30
     name rthumb
     direction -0.707107 -6.34872e-011 0.707107   
     length 0.944599   
     axis -90 -45 -2.85299e-015   XYZ
    dof rx rz
    limits (-45.0 45.0)
           (-45.0 45.0)
  end
:hierarchy
  begin
    root lhipjoint rhipjoint lowerback
    lhipjoint lfemur
    lfemur ltibia
    ltibia lfoot
    lfoot ltoes
    rhipjoint rfemur
    rfemur rtibia
    rtibia rfoot
    rfoot rtoes
    lowerback upperback
    upperback thorax
    thorax lowerneck lclavicle rclavicle
    lowerneck upperneck
    upperneck head
    lclavicle lhumerus
    lhumerus lradius
    lradius lwrist
    lwrist lhand lthumb
    lhand lfingers
    rclavicle rhumerus
    rhumerus rradius
    rradius rwrist
    rwrist rhand rthumb
    rhand rfingers
  end

#!OML:ASF F:\VICON\USERDATA\INSTALL\rory3\rory3.ASF
:FULLY-SPECIFIED
:DEGREES
51
root -0.925281 18.6552 20.6662 -157.888 -12.9878 -182.68
lowerback -9.43364 -2.97425 -0.873692
upperback -8.60027 -4.87571 1.25272
thorax -3.514 -2.79229 1.50649
lowerneck -15.7071 1.89629 -0.336836
upperneck 39.8869 -1.96324 0.558451
head 17.2467 -2.31907 -0.535144
rclavicle -2.1301e-014 -1.19271e-015
rhumerus -28.7083 -59.7768 -10.803
rradius 12.1044
rwrist 65.6255
rhand -3.66663 8.24414
rfingers 7.12502
rthumb 22.0741 -20.5159
lclavicle -2.1301e-014 -1.19271e-015
lhumerus 36.5516 -27.2489 53.5794
lradius 18.4984
lwrist -48.6086
lhand 0.901428 21.6553
lfingers 7.12502
lthumb 26.4535 49.8291
rfemur -53.5192 2.95531 16.9064
rtibia 46.6837
rfoot 6.14128 -38.3164
rtoes 40.9023
lfemur -23.0671 -1.43812 -26.3754
ltibia 32.8987
lfoot -11.2826 22.5388
ltoes 8.08904
52
root -0.934408 18.7029 20.5976 -157.983 -13.291 -181.48
lowerback -9.11738 -2.82074 0.532114
upperback -8.49103 -4.72046 1.64941
thorax -3.64379 -2.75911 1.16517
lowerneck -15.4131 1.84943 -0.401949
upperneck 39.7011 -1.99516 0.549478
head 17.0678 -2.3382 -0.522848
rclavicle -1.27719e-014 -5.56597e-015
rhumerus -26.6466 -57.9828 -12.877
rradius 12.2877
rwrist 62.9479
rhand -3.26798 7.61114
rfingers 7.12502
rthumb 22.4568 -21.1032
lclavicle -1.27719e-014 -5.56597e-015
lhumerus 36.647 -27.2581 53.1287
lradius 18.7049
lwrist -48.0762
lhand 0.795019 21.8791
lfingers 7.12502
lthumb 26.3516 50.0682
rfemur -53.9832 2.61086 18.2973
rtibia 46.352
rfoot 7.35394 -37.4807
rtoes 40.6077
lfemur -24.1966 -1.53041 -25.3696
ltibia 33.1038
lfoot -10.6125 22.1094
ltoes 6.2557
53
root -0.947082 18.7428 20.5302 -157.905 -13.2024 -180.661
lowerback -8.87418 -2.57846 1.50623
upperback -8.42719 -4.43455 1.89225
thorax -3.76334 -2.65166 0.907312
lowerneck -15.1079 1.76003 -0.443386
upperneck 39.5918 -2.12348 0.509342
head 16.9302 -2.40605 -0.550382
rclavicle 1.56543e-014 -7.95139e-016
rhumerus -26.0333 -58.1015 -13.2565
rradius 12.3598
rwrist 62.4009
rhand -3.05761 7.17357
rfingers 7.12502
rthumb 22.6587 -21.5163
lclavicle 1.56543e-014 -7.95139e-016
lhumerus 36.5792 -26.8469 53.2382
lradius 18.6974
lwrist -47.9367
lhand 0.381782 21.3376
lfingers 7.12502
lthumb 25.956 49.5853
rfemur -54.6687 2.21554 19.2898
rtibia 45.9724
rfoot 7.51207 -37.0944
rtoes 41.5406
lfemur -25.2813 -1.82044 -24.8198
ltibia 33.2566
lfoot -10.0273 21.9127
ltoes 3.62099
54
root -0.926186 18.7984 20.4027 -159.461 -14.228 -180.096
lowerback -7.60636 -2.9219 1.90073
upperback -7.82168 -4.73581 2.14916
thorax -3.82957 -2.74646 0.992322
lowerneck -14.6402 1.7125 -0.447498
upperneck 39.4115 -2.25821 0.615172
head 16.7167 -2.45354 -0.516423
rclavicle 2.6749e-014 5.96354e-015
rhumerus -25.2661 -57.3468 -14.0502
rradius 12.4594
rwrist 61.0956
rhand -3.04255 7.42366
rfingers 7.12502
rthumb 22.6731 -21.2644
lclavicle 2.6749e-014 5.96354e-015
lhumerus 36.7246 -27.2707 52.6396
lradius 18.9118
lwrist -47.5212
lhand 0.74838 22.125
lfingers 7.12502
lthumb 26.307 50.3208
rfemur -53.0094 2.7293 19.6999
rtibia 45.472
rfoot 2.09994 -38.2211
rtoes 44.7272
lfemur -24.2114 -2.06144 -23.9996
ltibia 33.3957
lfoot -7.78153 20.9557
ltoes -2.44186
55
root -0.92043 18.8242 20.3158 -160.13 -14.4809 -179.423
lowerback -6.84655 -2.96636 2.63345
upperback -7.48594 -4.73438 2.28695
thorax -3.94378 -2.74389 0.766077
lowerneck -14.4478 1.75277 -0.563257
upperneck 39.284 -2.2838 0.942386
head 16.6065 -2.43254 -0.348215
rclavicle 5.75482e-014 -9.54166e-015
rhumerus -24.2407 -56.3077 -15.2977
rradius 12.5916
rwrist 59.5339
rhand -3.13022 7.96416
rfingers 7.12502
rthumb 22.589 -20.7342
lclavicle 5.75482e-014 -9.54166e-015
lhumerus 36.7035 -27.4242 51.9893
lradius 19.1959
lwrist -47.2398
lhand 0.579342 22.3909
lfingers 7.12502
lthumb 26.1452 50.6107
rfemur -52.8114 3.00498 20.2664
rtibia 44.9811
rfoot 0.485275 -39.0146
rtoes 46.0533
lfemur -24.1736 -2.5648 -23.3407
ltibia 33.461
lfoot -7.06817 20.3911
ltoes -5.619
56
root -0.919766 18.8363 20.2511 -160.4 -14.4697 -178.608
lowerback -6.27525 -2.90301 3.57057
upperback -7.26753 -4.62418 2.49912
thorax -4.08904 -2.71022 0.501271
lowerneck -14.6133 1.76541 -0.801001
upperneck 39.303 -2.27129 1.1724
head 16.6634 -2.42205 -0.201871
rclavicle -7.32522e-014 2.42517e-014
rhumerus -23.2104 -55.9144 -16.3799
rradius 12.6477
rwrist 58.5996
rhand -3.29832 7.9833
rfingers 7.12502
rthumb 22.4276 -20.7346
lclavicle -7.32522e-014 2.42517e-014
lhumerus 36.2719 -26.4805 52.385
lradius 19.2661
lwrist -47.7544
lhand -0.0338817 22.0287
lfingers 7.12502
lthumb 25.5579 50.3341
rfemur -53.2694 3.38427 20.8545
rtibia 44.4632
rfoot -2.23325 -39.6686
rtoes 48.1782
lfemur -24.5649 -3.31285 -22.5612
ltibia 33.491
lfoot -8.03501 19.9008
ltoes -3.54912
57
root -0.919576 18.8392 20.1805 -160.653 -14.3308 -178.081
lowerback -5.63886 -2.81005 4.19514
upperback -7.12763 -4.45761 2.57996
thorax -4.33768 -2.64178 0.281891
lowerneck -14.4396 1.75178 -0.762363
upperneck 39.2263 -2.32746 1.2006
head 16.5798 -2.43662 -0.202661
rclavicle -4.17199e-014 1.35174e-014
rhumerus -22.8084 -55.9898 -16.7884
rradius 12.6215
rwrist 58.2429
rhand -3.29649 7.65587
rfingers 7.12502
rthumb 22.4294 -21.0618
lclavicle -4.17199e-014 1.35174e-014
lhumerus 35.6361 -25.2064 53.4334
lradius 19.0991
lwrist -48.3347
lhand -0.471046 21.132
lfingers 7.12502
lthumb 25.1391 49.4968
rfemur -53.7276 3.68464 21.098
rtibia 43.9534
rfoot -5.0063 -39.4393
rtoes 49.3181
lfemur -24.8372 -4.17205 -22.1134
ltibia 33.6624
lfoot -8.88981 19.6187
ltoes -2.57855
58
root -0.918534 18.8269 20.108 -160.947 -14.108 -177.481
lowerback -4.95793 -2.67133 4.83494
upperback -7.03859 -4.22527 2.64893
thorax -4.66423 -2.54771 0.0458261
lowerneck -14.2288 1.77083 -0.678365
upperneck 39.2032 -2.38192 1.25854
head 16.5164 -2.4468 -0.200401
rclavicle 2.03754e-015 2.22639e-014
rhumerus -21.984 -54.3647 -17.8349
rradius 12.6889
rwrist 56.4047
rhand -3.29652 7.57017
rfingers 7.12502
rthumb 22.4294 -21.1475
lclavicle 2.03754e-015 2.22639e-014
lhumerus 35.1337 -25.1196 53.4864
lradius 19.1088
lwrist -48.1284
lhand -1.29684 21.0306
lfingers 7.12502
lthumb 24.3477 49.504
rfemur -54.227 3.89775 21.4877
rtibia 43.4259
rfoot -4.6874 -39.3851
rtoes 48.2771
lfemur -25.0398 -5.07557 -21.5835
ltibia 33.8493
lfoot -9.25594 19.7243
ltoes -4.37919
59
root -0.918198 18.8017 20.038 -161.21 -13.8917 -176.879
lowerback -4.35838 -2.53844 5.52207
upperback -6.92267 -3.99847 2.67084
thorax -4.92212 -2.45957 -0.275571
lowerneck -14.0337 1.76349 -0.579041
upperneck 39.1631 -2.48492 1.33503
head 16.4494 -2.47042 -0.200762
rclavicle 2.30093e-014 -1.31198e-014
rhumerus -21.2294 -52.6203 -18.8723
rradius 12.739
rwrist 54.6485
rhand -3.31173 7.89338
rfingers 7.12502
rthumb 22.4148 -20.8261
lclavicle 2.30093e-014 -1.31198e-014
lhumerus 34.799 -25.6193 52.784
lradius 19.3999
lwrist -46.7672
lhand -1.99529 21.6261
lfingers 7.12502
lthumb 23.6779 50.1878
rfemur -54.7903 4.1421 21.8507
rtibia 42.8503
rfoot -5.31361 -39.3758
rtoes 47.4729
lfemur -25.2343 -5.77071 -21.0539
ltibia 34.0536
lfoot -9.1738 19.7118
ltoes -6.92305
